<?xml version="1.0" encoding="UTF-8" standalone="no"?>
<svg
   xmlns:dc="http://purl.org/dc/elements/1.1/"
   xmlns:cc="http://creativecommons.org/ns#"
   xmlns:rdf="http://www.w3.org/1999/02/22-rdf-syntax-ns#"
   xmlns:svg="http://www.w3.org/2000/svg"
   xmlns="http://www.w3.org/2000/svg"
   id="svg15894"
   version="1.1"
   width="32"
   viewBox="0 -32 23.999999 23.999999"
   height="32">
  <metadata
     id="metadata15900">
    <rdf:RDF>
      <cc:Work
         rdf:about="">
        <dc:format>image/svg+xml</dc:format>
        <dc:type
           rdf:resource="http://purl.org/dc/dcmitype/StillImage" />
        <dc:title></dc:title>
      </cc:Work>
    </rdf:RDF>
  </metadata>
  <defs
     id="defs15898" />
  <path
     style="stroke-width:0.1"
     id="path15890"
     d="m 22.999999,-28 h -7 c -0.552002,0 -1,0.447998 -1,1 v 4 H 7.9999997 c -0.5520019,0 -1,0.447998 -1,1 v 4 H 0.99999996 C 0.44799804,-18 0,-17.552002 0,-17 v 3.999999 c 0,0.552002 0.44799804,1 0.99999996,1 0.55200194,0 0.99999994,-0.447998 0.99999994,-1 v -3 h 5.9999998 c 0.5520018,0 0.9999999,-0.447998 0.9999999,-0.999999 v -4 h 6.9999994 c 0.552002,0 1,-0.447998 1,-1 v -4 h 6 c 0.552002,0 1,-0.447998 1,-1 0,-0.552002 -0.447998,-1 -1,-1 z m 0,0" />
</svg>
