<?xml version="1.0" encoding="UTF-8" standalone="no"?>
<svg
   xmlns:dc="http://purl.org/dc/elements/1.1/"
   xmlns:cc="http://creativecommons.org/ns#"
   xmlns:rdf="http://www.w3.org/1999/02/22-rdf-syntax-ns#"
   xmlns:svg="http://www.w3.org/2000/svg"
   xmlns="http://www.w3.org/2000/svg"
   width="32"
   height="32"
   viewBox="0 0 8.4666665 8.4666669"
   version="1.1"
   id="svg8">
  <metadata
     id="metadata9368">
    <rdf:RDF>
      <cc:Work
         rdf:about="">
        <dc:format>image/svg+xml</dc:format>
        <dc:type
           rdf:resource="http://purl.org/dc/dcmitype/StillImage" />
        <dc:title></dc:title>
      </cc:Work>
    </rdf:RDF>
  </metadata>
  <defs
     id="defs9366" />
  <path
     id="path9356"
     d="m 4.9173964,2.8049738 c -0.051551,-0.0719 -0.1346957,-0.11459 -0.2231782,-0.11459 h -0.027136 c -0.1184054,0 -0.2234355,0.0759 -0.2606676,0.18824 l -0.5901833,1.78102 -0.5929269,-1.78138 c -0.037361,-0.11217 -0.142305,-0.18788 -0.2605603,-0.18788 h -0.017619 c -0.00109,0 -0.00223,7e-5 -0.00328,7e-5 -0.00114,0 -0.00225,-7e-5 -0.00332,-7e-5 h -0.021392 c -0.1184053,0 -0.2234569,0.0759 -0.2607104,0.18824 l -0.5901619,1.78102 -0.5929055,-1.78138 c -0.037342,-0.11217 -0.1423288,-0.18788 -0.2605627,-0.18788 h -0.027179 c -0.088525,0 -0.1716277,0.0427 -0.22322108,0.11459 -0.0515933,0.072 -0.0652687,0.16439 -0.0368677,0.2482 l 0.86006778,2.53659 c 0.037789,0.11148 0.1423907,0.18643 0.2601102,0.18643 h 0.01136 c 0.00328,0 0.00649,-1.7e-4 0.00975,-3e-4 0.00324,1.3e-4 0.00647,3e-4 0.00973,3e-4 h 0.00759 c 0.1178909,0 0.2226209,-0.0752 0.2602602,-0.18693 l 0.5968495,-1.77212 0.5941273,1.77174 c 0.037532,0.11191 0.1423694,0.18731 0.2603889,0.18731 h 0.011296 c 0.00328,0 0.00649,-1.7e-4 0.00977,-3e-4 0.00322,1.3e-4 0.00647,3e-4 0.00973,3e-4 h 0.00761 c 0.117698,0 0.2222779,-0.075 0.2600888,-0.18643 l 0.8600677,-2.53659 c 0.02838,-0.0838 0.01464,-0.17622 -0.036932,-0.2482 z"
     style="fill:#000000;fill-opacity:1;stroke:#202020;stroke-width:0.05291667;stroke-miterlimit:4;stroke-dasharray:none;stroke-opacity:1" />
  <path
     id="path9358"
     d="m 7.4567665,4.9793138 c -0.1019435,-0.0947 -0.2585669,-0.0981 -0.3646044,-0.008 -0.1826452,0.15506 -0.4182127,0.24046 -0.6632543,0.24046 -0.5587814,0 -1.0133687,-0.43963 -1.0133687,-0.98002 0,-0.53836 0.4545873,-0.97631 1.0133687,-0.97631 0.2473995,0 0.4827526,0.0839 0.6627827,0.23636 0.1090384,0.0923 0.2706132,0.0856 0.3716564,-0.0154 l 0.00915,-0.009 c 0.05453,-0.0545 0.083574,-0.12938 0.080166,-0.20638 -0.00345,-0.077 -0.039054,-0.14901 -0.098171,-0.19844 -0.2866035,-0.23973 -0.6508864,-0.37177 -1.025608,-0.37177 -0.8702063,0 -1.5781948,0.69134 -1.5781948,1.54112 0,0.8518 0.7079885,1.5448 1.5781948,1.5448 0.3741214,0 0.7393475,-0.13304 1.028416,-0.37468 0.060489,-0.0506 0.096349,-0.12468 0.098364,-0.2035 0.0021,-0.0788 -0.029859,-0.15476 -0.087604,-0.20841 z"
     style="fill:#000000;fill-opacity:1;stroke:#202020;stroke-width:0.05291667;stroke-miterlimit:4;stroke-dasharray:none;stroke-opacity:1" />
</svg>
